<!DOCTYPE svg PUBLIC "-//W3C//DTD SVG 1.1//EN" "http://www.w3.org/Graphics/SVG/1.1/DTD/svg11.dtd">

<!-- Uploaded to: SVG Repo, www.svgrepo.com, Transformed by: SVG Repo Mixer Tools -->
<svg width="800px" height="800px" viewBox="0 0 1024 1024" class="icon" version="1.1" xmlns="http://www.w3.org/2000/svg" fill="#000000">

<g id="SVGRepo_bgCarrier" stroke-width="0"/>

<g id="SVGRepo_tracerCarrier" stroke-linecap="round" stroke-linejoin="round"/>

<g id="SVGRepo_iconCarrier">

<path d="M736 240.0768h-448c-31.1296 0-57.6 23.296-57.6 53.76v535.04l0.1536 2.9184a25.6 25.6 0 0 0 34.3552 21.0944L512 761.088l247.0912 91.8016A25.6 25.6 0 0 0 793.6 828.8768v-535.04c0-30.464-26.4704-53.76-57.6-53.76z m0 51.2l1.9456 0.1536c2.944 0.4608 4.4544 1.8944 4.4544 2.4064V792.064l-221.4912-82.2272-3.5072-1.024a25.6 25.6 0 0 0-14.336 1.024L281.6 792.064V293.888c0-0.64 2.2016-2.56 6.4-2.56h448z" fill="#FFFFFF"/>

<path d="M665.6 549.8368a23.04 23.04 0 0 1 2.8928 45.9008l-2.8928 0.1792H358.4a23.04 23.04 0 0 1-2.8928-45.9008l2.8928-0.1792h307.2zM524.8 434.6368a23.04 23.04 0 0 1 2.8928 45.9008l-2.8928 0.1792h-153.6a23.04 23.04 0 0 1-2.8928-45.9008l2.8928-0.1792h153.6z" fill="#FFFFFF"/>

<path d="M367.6672 182.016a23.04 23.04 0 0 1 23.04 19.968l0.2048 2.8928 1.0752 123.392a23.04 23.04 0 0 1-45.8752 3.2768l-0.2048-2.8928-1.0752-123.392a23.04 23.04 0 0 1 22.8352-23.2448zM669.7728 182.016a23.04 23.04 0 0 1 23.04 19.968l0.2048 2.8928 1.0752 123.392a23.04 23.04 0 0 1-45.8752 3.2768l-0.2048-2.8928-1.0752-123.392a23.04 23.04 0 0 1 22.8352-23.2448z" fill="#FFFFFF"/>

</g>

</svg>